
<svg width="234px" height="29px" viewBox="0 0 234 29" version="1.1" xmlns="http://www.w3.org/2000/svg" xmlns:xlink="http://www.w3.org/1999/xlink">
    <!-- Generator: Sketch 48.2 (47327) - http://www.bohemiancoding.com/sketch -->
    <title>Group</title>
    <desc>Created with Sketch.</desc>
    <defs>
        <polygon id="path-1" points="12.3178244 0.104359722 12.3178244 21.1551375 0.0983524957 21.1551375 0.0983524957 0.104359722 12.3178244 0.104359722"></polygon>
        <polygon id="path-3" points="0.000120826162 0.0539722222 28.538052 0.0539722222 28.538052 28.5972222 0.000120826162 28.5972222"></polygon>
    </defs>
    <g id="Styleguide" stroke="none" stroke-width="1" fill="none" fill-rule="evenodd">
        <g id="Group">
            <g id="Page-1">
                <path d="M48.8685036,4.44904306 C48.3437153,4.30364028 46.5031301,4.00034861 44.4760699,4.00034861 C42.0583384,4.00034861 36.4383108,4.8433625 36.4383108,12.6624875 L36.4383108,16.6822097 C36.4383108,24.7240708 42.5903762,25.3499875 44.4760699,25.3499875 C46.7125621,25.3499875 48.5390509,24.9955431 48.885822,24.8972653 C49.1480148,24.8167097 49.6949546,24.6487514 49.6949546,23.9813486 L49.6949546,22.1587792 C49.6949546,21.6073764 49.375168,21.2787097 48.8503797,21.2787097 L48.7658014,21.2787097 C48.1733504,21.3359042 46.1213194,21.5014458 44.5288306,21.5014458 C42.0583384,21.5014458 40.8617566,19.9277931 40.8617566,16.6822097 L40.8617566,12.6624875 C40.8617566,9.37622361 42.0261181,7.8484875 44.5288306,7.8484875 C46.1213194,7.8484875 48.1733504,8.01322361 48.7964107,8.06558472 L48.8503797,8.06558472 C49.375168,8.06558472 49.6949546,7.74376528 49.6949546,7.19719583 L49.6949546,5.36616806 C49.6949546,4.69916806 49.1266688,4.52154306 48.8685036,4.44904306" id="Fill-1" fill="#FFFFFF"></path>
                <path d="M56.2564998,12.8240014 C56.2564998,9.42415417 57.3850162,7.90447361 59.9187408,7.90447361 C62.4572985,7.90447361 63.5894396,9.42415417 63.5894396,12.8240014 L63.5894396,16.5186819 C63.5894396,19.9277931 62.4572985,21.4470708 59.9187408,21.4470708 C57.3850162,21.4470708 56.2564998,19.9277931 56.2564998,16.5186819 L56.2564998,12.8240014 Z M59.9187408,4.00034861 C54.7042864,4.00034861 51.8338596,7.13355694 51.8338596,12.8240014 L51.8338596,16.5186819 C51.8338596,22.2131542 54.7042864,25.3499875 59.9187408,25.3499875 C65.1428613,25.3499875 68.0092606,22.2131542 68.0092606,16.5186819 L68.0092606,12.8240014 C68.0092606,7.13355694 65.1428613,4.00034861 59.9187408,4.00034861 Z" id="Fill-3" fill="#FFFFFF"></path>
                <path d="M82.2345274,21.5014056 L77.2069508,21.5014056 C75.7671057,21.5014056 75.3707959,21.0559333 75.3707959,19.4472389 L75.3707959,5.05921111 C75.3707959,4.59601667 74.9877769,4.21700278 74.5250127,4.21700278 L71.8237425,4.21700278 C71.3525205,4.21700278 70.9795704,4.59601667 70.9795704,5.05921111 L70.9795704,19.4472389 C70.9795704,24.6801278 74.5080971,25.3499472 77.5843312,25.3499472 C79.0910334,25.3499472 81.4696978,25.1554056 82.297357,24.9596556 C82.7677735,24.8617806 83.0782967,24.6801278 83.0782967,24.0969056 L83.0782967,22.345225 C83.0782967,21.8784056 82.7057494,21.5014056 82.2345274,21.5014056" id="Fill-5" fill="#FFFFFF"></path>
                <path d="M89.4801904,7.92888194 C90.0678083,7.88860417 91.1077188,7.84872917 91.6139804,7.84872917 C94.2459769,7.84872917 95.4187962,8.65992361 95.4187962,10.4772569 L95.4187962,10.7229514 C95.4187962,12.8431736 94.4223831,13.5967708 91.6139804,13.5967708 C91.2313642,13.5967708 90.0891542,13.5589097 89.4801904,13.5323264 L89.4801904,7.92888194 Z M96.2190682,16.4500486 C98.5578599,15.4197431 99.7842454,13.4421042 99.7842454,10.7229514 L99.7842454,10.4772569 C99.7842454,6.29722917 96.8860286,4.0001875 91.6139804,4.0001875 C89.6714985,4.0001875 87.7024348,4.1270625 86.2074124,4.35624306 C85.7277325,4.43196528 85.0801043,4.62489583 85.0801043,5.46992361 L85.0801043,24.2836736 C85.0801043,24.7553264 85.4611095,25.1291042 85.9230682,25.1291042 L88.6626,25.1291042 C89.1197256,25.1291042 89.4801904,24.7581458 89.4801904,24.2836736 L89.4801904,17.1891458 C89.6054468,17.1984097 89.7383556,17.2008264 89.880125,17.2133125 C90.4584795,17.2451319 91.1258427,17.2850069 91.6139804,17.2850069 L91.8185793,17.2850069 L95.6676981,24.4218264 L95.6987102,24.4790208 C95.8360492,24.7553264 96.0233298,25.1291042 96.486094,25.1291042 L99.8204933,25.1291042 C100.18418,25.1291042 100.443554,24.8717292 100.443554,24.5060069 C100.443554,24.4298819 100.443554,24.2756181 100.352531,24.1463264 L96.2190682,16.4500486 Z" id="Fill-7" fill="#FFFFFF"></path>
                <path d="M117.593095,4.2169625 L114.884576,4.2169625 C114.40852,4.2169625 114.041209,4.57744861 114.041209,5.03500417 L114.041209,17.3092542 C114.041209,20.5214069 113.172872,21.6072958 110.621829,21.6072958 C108.061119,21.6072958 107.198018,20.5214069 107.198018,17.3092542 L107.198018,5.03500417 C107.198018,4.57744861 106.830706,4.2169625 106.354651,4.2169625 L103.646937,4.2169625 C103.17209,4.2169625 102.797932,4.57744861 102.797932,5.03500417 L102.797932,17.3092542 C102.797932,22.6472681 105.431137,25.3499069 110.621829,25.3499069 C115.805271,25.3499069 118.436865,22.6472681 118.436865,17.3092542 L118.436865,5.03500417 C118.436865,4.57744861 118.067137,4.2169625 117.593095,4.2169625" id="Fill-9" fill="#FFFFFF"></path>
                <path d="M135.719758,4.2169625 L132.709979,4.2169625 C132.301586,4.2169625 132.021672,4.55650417 131.91454,4.84328194 L128.633707,12.9910736 C128.52456,13.2653653 128.442801,13.3338375 128.447634,13.3543792 C128.421455,13.3338375 128.34171,13.2597264 128.233772,12.9918792 L124.953745,4.8513375 C124.846612,4.55650417 124.570726,4.2169625 124.163139,4.2169625 L121.122347,4.2169625 C120.703483,4.2169625 120.383696,4.5214625 120.383696,4.92343472 C120.383696,5.02855972 120.418736,5.13167083 120.463442,5.26136528 L124.594488,14.7532264 C125.051614,15.8157542 125.576402,16.4823514 126.234099,16.8194764 L126.234099,24.2837542 C126.234099,24.7582264 126.598994,25.1291847 127.051287,25.1291847 L129.785986,25.1291847 C130.244319,25.1291847 130.607603,24.7582264 130.607603,24.2837542 L130.607603,16.8194764 C131.266509,16.4823514 131.786464,15.8157542 132.249631,14.7532264 L136.412898,5.23760139 L136.431827,5.1920875 C136.458409,5.1232125 136.489421,5.0434625 136.489421,4.92343472 C136.489421,4.5287125 136.14708,4.2169625 135.719758,4.2169625" id="Fill-11" fill="#FFFFFF"></path>
                <path d="M151.473597,4.2169625 L138.103779,4.2169625 C137.632557,4.2169625 137.257593,4.57744861 137.257593,5.03500417 L137.257593,7.19711528 C137.257593,7.64862917 137.623697,7.98575417 138.103779,7.98575417 L142.588444,7.98575417 L142.588444,24.2837542 C142.588444,24.7554069 142.965824,25.1291847 143.433019,25.1291847 L146.139525,25.1291847 C146.607122,25.1291847 146.984905,24.7554069 146.984905,24.2837542 L146.984905,7.98575417 L151.473597,7.98575417 C151.95368,7.98575417 152.318575,7.64862917 152.318575,7.19711528 L152.318575,5.03500417 C152.318575,4.57744861 151.945222,4.2169625 151.473597,4.2169625" id="Fill-13" fill="#FFFFFF"></path>
                <path d="M166.162313,4.35265833 C164.867459,4.20363056 163.600798,4.07796389 161.200385,4.07796389 C159.053304,4.07796389 154.052309,4.94836667 154.052309,12.9918389 L154.052309,16.3836306 C154.052309,22.0495056 156.653294,25.2967 161.200385,25.2967 C163.325717,25.2967 164.571032,25.1372 165.760767,24.9869639 L166.136134,24.9366167 C166.547748,24.8971444 166.86391,24.5330333 166.86391,24.1234083 L166.86391,14.9050333 C166.86391,14.439825 166.53929,14.0910194 166.099483,14.0910194 L165.83286,14.0910194 C165.396677,14.0910194 165.067628,14.439825 165.067628,14.9050333 L165.067628,23.34645 C164.453428,23.4129083 163.165421,23.5506583 161.200385,23.5506583 C157.697634,23.5506583 155.848189,21.0747833 155.848189,16.3836306 L155.848189,12.9918389 C155.848189,7.04321389 158.760502,5.79983889 161.200385,5.79983889 C163.236708,5.79983889 164.09981,5.88764444 166.019335,6.07372778 L166.179228,6.07372778 C166.650853,6.07372778 166.890894,5.82883889 166.890894,5.36645 L166.890894,5.08772778 C166.890894,4.79490833 166.766443,4.42636667 166.162313,4.35265833" id="Fill-15" fill="#FFFFFF"></path>
                <path d="M172.474231,5.91185139 C173.30914,5.84780972 174.651921,5.82324028 175.700692,5.82324028 C179.968272,5.82324028 181.631243,6.98203194 181.631243,9.95412917 L181.631243,10.0914764 C181.631243,13.1852125 180.136623,14.2231708 175.700692,14.2231708 C175.291897,14.2231708 174.585467,14.2179347 173.886689,14.2143097 C173.358276,14.2062542 172.846778,14.1994069 172.474231,14.1994069 L172.474231,5.91185139 Z M178.733832,15.7420458 C181.938947,15.0750458 183.436789,13.2653653 183.436789,10.0914764 L183.436789,9.95412917 C183.436789,5.83935139 181.119746,4.07800417 175.700692,4.07800417 C174.536734,4.07800417 172.384014,4.13962917 171.403711,4.19199028 C171.006999,4.23629583 170.668283,4.61128194 170.668283,5.01285139 L170.668283,24.3099347 C170.668283,24.7731292 171.006999,25.1291847 171.433515,25.1291847 L171.709401,25.1291847 C172.135918,25.1291847 172.474231,24.7731292 172.474231,24.3099347 L172.474231,15.9506847 C173.16294,15.9506847 174.856117,15.9663931 175.700692,15.9663931 L176.714424,15.9663931 L182.458902,24.7691014 C182.565229,24.9060458 182.841518,25.1291847 183.110961,25.1291847 L183.468203,25.1291847 C183.898345,25.1291847 184.201215,24.8395875 184.201215,24.4219069 C184.201215,24.2660319 184.138789,24.0892125 184.013129,23.8789625 L178.733832,15.7420458 Z" id="Fill-17" fill="#FFFFFF"></path>
                <path d="M193.776125,23.5506986 C190.129189,23.5506986 188.280548,21.1465181 188.280548,16.3836708 L188.280548,12.9918792 C188.280548,8.23587917 190.129189,5.82324028 193.776125,5.82324028 C197.421048,5.82324028 199.274924,8.23587917 199.274924,12.9918792 L199.274924,16.3836708 C199.274924,21.1465181 197.421048,23.5506986 193.776125,23.5506986 M193.776125,4.07800417 C189.068738,4.07800417 186.472989,7.24665694 186.472989,12.9918792 L186.472989,16.3836708 C186.472989,22.1272819 189.068738,25.2967403 193.776125,25.2967403 C198.479485,25.2967403 201.067178,22.1272819 201.067178,16.3836708 L201.067178,12.9918792 C201.067178,7.24665694 198.479485,4.07800417 193.776125,4.07800417" id="Fill-19" fill="#FFFFFF"></path>
                <path d="M217.073705,4.2169625 L216.794193,4.2169625 C216.370899,4.2169625 216.032183,4.57744861 216.032183,5.03500417 L216.032183,17.6165736 C216.032183,21.7414208 214.508565,23.5813097 211.079922,23.5813097 C207.689539,23.5813097 206.102689,21.6789903 206.102689,17.6165736 L206.102689,5.03500417 C206.102689,4.58630972 205.759543,4.2169625 205.341082,4.2169625 L205.066806,4.2169625 C204.639887,4.2169625 204.301171,4.57744861 204.301171,5.03500417 L204.301171,17.6165736 C204.301171,22.6384069 206.644796,25.2967403 211.079922,25.2967403 C215.495312,25.2967403 217.834104,22.6384069 217.834104,17.6165736 L217.834104,5.03500417 C217.834104,4.57744861 217.499818,4.2169625 217.073705,4.2169625" id="Fill-21" fill="#FFFFFF"></path>
                <g id="Group-25" transform="translate(221.514630, 3.973886)">
                    <mask id="mask-2" fill="white">
                        <use xlink:href="#path-1"></use>
                    </mask>
                    <g id="Clip-24"></g>
                    <path d="M4.57737831,10.9068597 C3.75012186,10.9068597 2.7037673,10.8593319 1.89181549,10.8190542 L1.89181549,1.83509583 C2.62241102,1.78998472 3.54753666,1.77105417 4.57737831,1.77105417 C8.79703064,1.77105417 10.5167897,2.98341528 10.5167897,5.95752639 L10.5167897,6.42152639 C10.5167897,9.60870694 8.79703064,10.9068597 4.57737831,10.9068597 M4.57737831,0.104359722 C3.44926472,0.104359722 1.92363305,0.1845125 0.831364544,0.242915278 C0.435457487,0.2896375 0.0983524957,0.660595833 0.0983524957,1.06135972 L0.0983524957,20.3358875 C0.0983524957,20.7994847 0.435457487,21.1551375 0.86116833,21.1551375 L1.13262444,21.1551375 C1.56397384,21.1551375 1.89181549,20.7994847 1.89181549,20.3358875 L1.89181549,12.4833319 C2.4540599,12.5147486 3.49316489,12.5719431 4.57737831,12.5719431 C9.78861067,12.5719431 12.317905,10.5584569 12.317905,6.42152639 L12.317905,5.95752639 C12.317905,2.07515139 9.71651773,0.104359722 4.57737831,0.104359722" id="Fill-23" fill="#FFFFFF" mask="url(#mask-2)"></path>
                </g>
                <g id="Group-28" transform="translate(0.000000, 0.348886)">
                    <mask id="mask-4" fill="white">
                        <use xlink:href="#path-3"></use>
                    </mask>
                    <g id="Clip-27"></g>
                    <path d="M18.7720761,14.3269264 C18.7720761,16.8140792 16.7542792,18.8295792 14.2604272,18.8295792 C11.775033,18.8295792 9.75683339,16.8140792 9.75683339,14.3269264 C9.75683339,11.8365514 11.775033,9.82064861 14.2604272,9.82064861 C14.8033394,9.82064861 15.3232947,9.91610694 15.7993497,10.0905097 L19.9283824,1.23584306 C18.1900967,0.480634722 16.2790296,0.0536902778 14.2604272,0.0536902778 C6.38336695,0.0536902778 0.000120826162,6.44537083 0.000120826162,14.3269264 C0.000120826162,22.2040514 6.38336695,28.5973431 14.2604272,28.5973431 C22.146348,28.5973431 28.538052,22.2040514 28.538052,14.3269264 C28.538052,13.2370097 28.405546,12.1740792 28.1739625,11.1538431 L17.4651398,11.1538431 C18.274675,11.9654403 18.7720761,13.0887875 18.7720761,14.3269264" id="Fill-26" fill="#FFFFFF" mask="url(#mask-4)"></path>
                </g>
            </g>
        </g>
    </g>
</svg>
